<mxfile host="app.diagrams.net" agent="Mozilla/5.0 (Windows NT 10.0; Win64; x64) AppleWebKit/537.36 (KHTML, like Gecko) Chrome/134.0.0.0 Safari/537.36" version="26.1.1" pages="3">
  <diagram name="Page-1" id="LyF2Q-wK2kTMow-oSCa3">
    <mxGraphModel dx="3163" dy="1170" grid="1" gridSize="10" guides="1" tooltips="1" connect="1" arrows="1" fold="1" page="1" pageScale="1" pageWidth="850" pageHeight="1100" math="0" shadow="0">
      <root>
        <mxCell id="0" />
        <mxCell id="1" parent="0" />
        <mxCell id="PCdBLNUcMFj2vfBitNHI-10" value="Employee" style="swimlane;fontStyle=1;align=center;verticalAlign=top;childLayout=stackLayout;horizontal=1;startSize=20;horizontalStack=0;resizeParent=1;resizeParentMax=0;resizeLast=0;collapsible=1;marginBottom=0;whiteSpace=wrap;html=1;" parent="1" vertex="1">
          <mxGeometry y="38" width="250" height="150" as="geometry" />
        </mxCell>
        <mxCell id="PCdBLNUcMFj2vfBitNHI-11" value="- idEmployee : int&lt;div&gt;- name : String&lt;/div&gt;" style="text;strokeColor=none;fillColor=none;align=left;verticalAlign=top;spacingLeft=4;spacingRight=4;overflow=hidden;rotatable=0;points=[[0,0.5],[1,0.5]];portConstraint=eastwest;whiteSpace=wrap;html=1;" parent="PCdBLNUcMFj2vfBitNHI-10" vertex="1">
          <mxGeometry y="20" width="250" height="44" as="geometry" />
        </mxCell>
        <mxCell id="PCdBLNUcMFj2vfBitNHI-12" value="" style="line;strokeWidth=1;fillColor=none;align=left;verticalAlign=middle;spacingTop=-1;spacingLeft=3;spacingRight=3;rotatable=0;labelPosition=right;points=[];portConstraint=eastwest;strokeColor=inherit;" parent="PCdBLNUcMFj2vfBitNHI-10" vertex="1">
          <mxGeometry y="64" width="250" height="8" as="geometry" />
        </mxCell>
        <mxCell id="PCdBLNUcMFj2vfBitNHI-13" value="&lt;div&gt;+ Employee(int idEmployee, String name)&lt;/div&gt;+ getIdEmployee() : int&lt;div&gt;+ getName() : String&lt;/div&gt;&lt;div&gt;+ toString() : String&lt;/div&gt;" style="text;strokeColor=none;fillColor=none;align=left;verticalAlign=top;spacingLeft=4;spacingRight=4;overflow=hidden;rotatable=0;points=[[0,0.5],[1,0.5]];portConstraint=eastwest;whiteSpace=wrap;html=1;" parent="PCdBLNUcMFj2vfBitNHI-10" vertex="1">
          <mxGeometry y="72" width="250" height="78" as="geometry" />
        </mxCell>
        <mxCell id="PCdBLNUcMFj2vfBitNHI-14" value="Task" style="swimlane;fontStyle=1;align=center;verticalAlign=top;childLayout=stackLayout;horizontal=1;startSize=26;horizontalStack=0;resizeParent=1;resizeParentMax=0;resizeLast=0;collapsible=1;marginBottom=0;whiteSpace=wrap;html=1;" parent="1" vertex="1">
          <mxGeometry x="540" y="360" width="240" height="180" as="geometry" />
        </mxCell>
        <mxCell id="PCdBLNUcMFj2vfBitNHI-15" value="- idTask : int&lt;div&gt;- statusTask : String&lt;/div&gt;" style="text;strokeColor=none;fillColor=none;align=left;verticalAlign=top;spacingLeft=4;spacingRight=4;overflow=hidden;rotatable=0;points=[[0,0.5],[1,0.5]];portConstraint=eastwest;whiteSpace=wrap;html=1;" parent="PCdBLNUcMFj2vfBitNHI-14" vertex="1">
          <mxGeometry y="26" width="240" height="44" as="geometry" />
        </mxCell>
        <mxCell id="PCdBLNUcMFj2vfBitNHI-16" value="" style="line;strokeWidth=1;fillColor=none;align=left;verticalAlign=middle;spacingTop=-1;spacingLeft=3;spacingRight=3;rotatable=0;labelPosition=right;points=[];portConstraint=eastwest;strokeColor=inherit;" parent="PCdBLNUcMFj2vfBitNHI-14" vertex="1">
          <mxGeometry y="70" width="240" height="8" as="geometry" />
        </mxCell>
        <mxCell id="PCdBLNUcMFj2vfBitNHI-17" value="&lt;div&gt;+ Task(int idTask, String statusTask)&lt;/div&gt;+ getIdTask() : int&lt;div&gt;+ getStatusTask() : String&lt;/div&gt;&lt;div&gt;+ setStatusTask(String statusTask) : void&lt;/div&gt;&lt;div&gt;+ estimateDuration() : int&amp;nbsp;&lt;/div&gt;&lt;div&gt;+ toString() : String&lt;/div&gt;" style="text;strokeColor=none;fillColor=none;align=left;verticalAlign=top;spacingLeft=4;spacingRight=4;overflow=hidden;rotatable=0;points=[[0,0.5],[1,0.5]];portConstraint=eastwest;whiteSpace=wrap;html=1;" parent="PCdBLNUcMFj2vfBitNHI-14" vertex="1">
          <mxGeometry y="78" width="240" height="102" as="geometry" />
        </mxCell>
        <mxCell id="PCdBLNUcMFj2vfBitNHI-18" value="SimpleTask" style="swimlane;fontStyle=1;align=center;verticalAlign=top;childLayout=stackLayout;horizontal=1;startSize=26;horizontalStack=0;resizeParent=1;resizeParentMax=0;resizeLast=0;collapsible=1;marginBottom=0;whiteSpace=wrap;html=1;" parent="1" vertex="1">
          <mxGeometry x="500" y="790" width="220" height="170" as="geometry" />
        </mxCell>
        <mxCell id="PCdBLNUcMFj2vfBitNHI-19" value="- startHour : int&lt;div&gt;- endHour : int&lt;/div&gt;" style="text;strokeColor=none;fillColor=none;align=left;verticalAlign=top;spacingLeft=4;spacingRight=4;overflow=hidden;rotatable=0;points=[[0,0.5],[1,0.5]];portConstraint=eastwest;whiteSpace=wrap;html=1;" parent="PCdBLNUcMFj2vfBitNHI-18" vertex="1">
          <mxGeometry y="26" width="220" height="44" as="geometry" />
        </mxCell>
        <mxCell id="PCdBLNUcMFj2vfBitNHI-20" value="" style="line;strokeWidth=1;fillColor=none;align=left;verticalAlign=middle;spacingTop=-1;spacingLeft=3;spacingRight=3;rotatable=0;labelPosition=right;points=[];portConstraint=eastwest;strokeColor=inherit;" parent="PCdBLNUcMFj2vfBitNHI-18" vertex="1">
          <mxGeometry y="70" width="220" height="8" as="geometry" />
        </mxCell>
        <mxCell id="PCdBLNUcMFj2vfBitNHI-21" value="&lt;div&gt;+ SimpleTask(int idTask, String statusTask, int startHour, int endHour)&lt;/div&gt;+ estimateDuration() : int&lt;div&gt;+ toString() : String&lt;/div&gt;" style="text;strokeColor=none;fillColor=none;align=left;verticalAlign=top;spacingLeft=4;spacingRight=4;overflow=hidden;rotatable=0;points=[[0,0.5],[1,0.5]];portConstraint=eastwest;whiteSpace=wrap;html=1;" parent="PCdBLNUcMFj2vfBitNHI-18" vertex="1">
          <mxGeometry y="78" width="220" height="92" as="geometry" />
        </mxCell>
        <mxCell id="PCdBLNUcMFj2vfBitNHI-22" value="ComplexTask" style="swimlane;fontStyle=1;align=center;verticalAlign=top;childLayout=stackLayout;horizontal=1;startSize=26;horizontalStack=0;resizeParent=1;resizeParentMax=0;resizeLast=0;collapsible=1;marginBottom=0;whiteSpace=wrap;html=1;" parent="1" vertex="1">
          <mxGeometry x="740" y="790" width="250" height="170" as="geometry" />
        </mxCell>
        <mxCell id="PCdBLNUcMFj2vfBitNHI-23" value="- tasks : List&amp;lt;Task&amp;gt;" style="text;strokeColor=none;fillColor=none;align=left;verticalAlign=top;spacingLeft=4;spacingRight=4;overflow=hidden;rotatable=0;points=[[0,0.5],[1,0.5]];portConstraint=eastwest;whiteSpace=wrap;html=1;" parent="PCdBLNUcMFj2vfBitNHI-22" vertex="1">
          <mxGeometry y="26" width="250" height="26" as="geometry" />
        </mxCell>
        <mxCell id="PCdBLNUcMFj2vfBitNHI-24" value="" style="line;strokeWidth=1;fillColor=none;align=left;verticalAlign=middle;spacingTop=-1;spacingLeft=3;spacingRight=3;rotatable=0;labelPosition=right;points=[];portConstraint=eastwest;strokeColor=inherit;" parent="PCdBLNUcMFj2vfBitNHI-22" vertex="1">
          <mxGeometry y="52" width="250" height="8" as="geometry" />
        </mxCell>
        <mxCell id="PCdBLNUcMFj2vfBitNHI-25" value="&lt;div&gt;+ ComplexTask(int idTask, String statusTask&lt;/div&gt;+ getTasks : List&amp;lt;Task&amp;gt;&lt;div&gt;+ addTask(Task task) : void&lt;/div&gt;&lt;div&gt;+ estimateDuration() : int&lt;/div&gt;&lt;div&gt;+ toString() : String&lt;/div&gt;" style="text;strokeColor=none;fillColor=none;align=left;verticalAlign=top;spacingLeft=4;spacingRight=4;overflow=hidden;rotatable=0;points=[[0,0.5],[1,0.5]];portConstraint=eastwest;whiteSpace=wrap;html=1;" parent="PCdBLNUcMFj2vfBitNHI-22" vertex="1">
          <mxGeometry y="60" width="250" height="110" as="geometry" />
        </mxCell>
        <mxCell id="PCdBLNUcMFj2vfBitNHI-26" value="TasksManagement" style="swimlane;fontStyle=1;align=center;verticalAlign=top;childLayout=stackLayout;horizontal=1;startSize=26;horizontalStack=0;resizeParent=1;resizeParentMax=0;resizeLast=0;collapsible=1;marginBottom=0;whiteSpace=wrap;html=1;" parent="1" vertex="1">
          <mxGeometry x="10" y="280" width="440" height="270" as="geometry" />
        </mxCell>
        <mxCell id="PCdBLNUcMFj2vfBitNHI-27" value="- taskMap : Map&amp;lt;Employee, List&amp;lt;Task&amp;gt;&amp;gt;&lt;div&gt;- taskList : List&amp;lt;Task&amp;gt;&lt;/div&gt;" style="text;strokeColor=none;fillColor=none;align=left;verticalAlign=top;spacingLeft=4;spacingRight=4;overflow=hidden;rotatable=0;points=[[0,0.5],[1,0.5]];portConstraint=eastwest;whiteSpace=wrap;html=1;" parent="PCdBLNUcMFj2vfBitNHI-26" vertex="1">
          <mxGeometry y="26" width="440" height="34" as="geometry" />
        </mxCell>
        <mxCell id="PCdBLNUcMFj2vfBitNHI-28" value="" style="line;strokeWidth=1;fillColor=none;align=left;verticalAlign=middle;spacingTop=-1;spacingLeft=3;spacingRight=3;rotatable=0;labelPosition=right;points=[];portConstraint=eastwest;strokeColor=inherit;" parent="PCdBLNUcMFj2vfBitNHI-26" vertex="1">
          <mxGeometry y="60" width="440" height="8" as="geometry" />
        </mxCell>
        <mxCell id="PCdBLNUcMFj2vfBitNHI-29" value="&lt;div&gt;+ TasksManagement()&amp;nbsp;&lt;/div&gt;+ findEmployeeById(int id) : Employee&lt;div&gt;+ findTaskById(int id) : boolean&lt;/div&gt;&lt;div&gt;&lt;div&gt;+ getTaskList() : List&amp;lt;Task&amp;gt;&lt;/div&gt;&lt;div&gt;+ getEmployees() : List&amp;lt;Employees&amp;gt;&lt;/div&gt;&lt;div&gt;+ getTaskById(int taskId) : Task&lt;/div&gt;&lt;/div&gt;&lt;div&gt;+ addEmployee(int idEmployee, String name) : void&lt;/div&gt;&lt;div&gt;+ addSimpleTask(int idTask, String statusTask, int startHour, int endHour) : void&lt;/div&gt;&lt;div&gt;+ addComplexTask(int idTask, String statusTask, List&amp;lt;Task&amp;gt; subtasks) : void&lt;/div&gt;&lt;div&gt;+ assignTaskToEmployee(int idEmployee, Task task) : void&lt;/div&gt;&lt;div&gt;+ calculateEmployeeWorkDuration(int idEmployee) : int&lt;/div&gt;&lt;div&gt;+ modifyTaskStatus(int idEmployee, int idTask, String newStatus) : void&amp;nbsp;&lt;/div&gt;&lt;div&gt;+ updateSubtaskStatus(ComplexTask complexTask, String newStatus)&lt;/div&gt;&lt;div&gt;&lt;br&gt;&lt;/div&gt;&lt;div&gt;&lt;br&gt;&lt;/div&gt;&lt;div&gt;&lt;br&gt;&lt;/div&gt;" style="text;strokeColor=none;fillColor=none;align=left;verticalAlign=top;spacingLeft=4;spacingRight=4;overflow=hidden;rotatable=0;points=[[0,0.5],[1,0.5]];portConstraint=eastwest;whiteSpace=wrap;html=1;" parent="PCdBLNUcMFj2vfBitNHI-26" vertex="1">
          <mxGeometry y="68" width="440" height="202" as="geometry" />
        </mxCell>
        <mxCell id="PCdBLNUcMFj2vfBitNHI-30" value="Utility" style="swimlane;fontStyle=1;align=center;verticalAlign=top;childLayout=stackLayout;horizontal=1;startSize=26;horizontalStack=0;resizeParent=1;resizeParentMax=0;resizeLast=0;collapsible=1;marginBottom=0;whiteSpace=wrap;html=1;" parent="1" vertex="1">
          <mxGeometry x="-40" y="640" width="340" height="110" as="geometry" />
        </mxCell>
        <mxCell id="PCdBLNUcMFj2vfBitNHI-31" value="" style="line;strokeWidth=1;fillColor=none;align=left;verticalAlign=middle;spacingTop=-1;spacingLeft=3;spacingRight=3;rotatable=0;labelPosition=right;points=[];portConstraint=eastwest;strokeColor=inherit;" parent="PCdBLNUcMFj2vfBitNHI-30" vertex="1">
          <mxGeometry y="26" width="340" height="8" as="geometry" />
        </mxCell>
        <mxCell id="PCdBLNUcMFj2vfBitNHI-32" value="&lt;div&gt;&lt;span style=&quot;background-color: transparent; color: light-dark(rgb(0, 0, 0), rgb(255, 255, 255));&quot;&gt;+filterAndSortEmployeeByWorkDuration(TasksManagement tasksManagement) : void&lt;/span&gt;&lt;/div&gt;&lt;div&gt;+ calculateTaskStatusCount(TasksManagement tasksManagement) : Map&amp;lt;String, Map&amp;lt;String, Integer&amp;gt;&amp;gt;&amp;nbsp;&lt;/div&gt;" style="text;strokeColor=none;fillColor=none;align=left;verticalAlign=top;spacingLeft=4;spacingRight=4;overflow=hidden;rotatable=0;points=[[0,0.5],[1,0.5]];portConstraint=eastwest;whiteSpace=wrap;html=1;" parent="PCdBLNUcMFj2vfBitNHI-30" vertex="1">
          <mxGeometry y="34" width="340" height="76" as="geometry" />
        </mxCell>
        <mxCell id="PCdBLNUcMFj2vfBitNHI-33" value="TaskManagementView" style="swimlane;fontStyle=1;align=center;verticalAlign=top;childLayout=stackLayout;horizontal=1;startSize=26;horizontalStack=0;resizeParent=1;resizeParentMax=0;resizeLast=0;collapsible=1;marginBottom=0;whiteSpace=wrap;html=1;" parent="1" vertex="1">
          <mxGeometry x="80" y="790" width="410" height="270" as="geometry" />
        </mxCell>
        <mxCell id="PCdBLNUcMFj2vfBitNHI-34" value="- taskManager : TasksManagement&lt;div&gt;- employees : List&amp;lt;Employee&amp;gt;&lt;/div&gt;&lt;div&gt;- tasks : List&amp;lt;Task&amp;gt; tasks&lt;/div&gt;" style="text;strokeColor=none;fillColor=none;align=left;verticalAlign=top;spacingLeft=4;spacingRight=4;overflow=hidden;rotatable=0;points=[[0,0.5],[1,0.5]];portConstraint=eastwest;whiteSpace=wrap;html=1;" parent="PCdBLNUcMFj2vfBitNHI-33" vertex="1">
          <mxGeometry y="26" width="410" height="54" as="geometry" />
        </mxCell>
        <mxCell id="PCdBLNUcMFj2vfBitNHI-35" value="" style="line;strokeWidth=1;fillColor=none;align=left;verticalAlign=middle;spacingTop=-1;spacingLeft=3;spacingRight=3;rotatable=0;labelPosition=right;points=[];portConstraint=eastwest;strokeColor=inherit;" parent="PCdBLNUcMFj2vfBitNHI-33" vertex="1">
          <mxGeometry y="80" width="410" height="8" as="geometry" />
        </mxCell>
        <mxCell id="PCdBLNUcMFj2vfBitNHI-36" value="&lt;div&gt;+ TaskManagementView(TasksManagement taskManager)&lt;/div&gt;+ startView() : void&lt;div&gt;+ loadEmployeesFromTaskManager() : void&amp;nbsp;&lt;/div&gt;&lt;div&gt;+ loadTasksFromTaskManager() : void&lt;/div&gt;&lt;div&gt;+loadTaskAssignments(ListView&amp;lt;String&amp;gt; assignedTasksListView) : void&lt;/div&gt;&lt;div&gt;+ showAddEmployeeForm() : void&lt;/div&gt;&lt;div&gt;+ showAddTaskForm() : void&amp;nbsp;&lt;/div&gt;&lt;div&gt;+showAssignTaskForm(ListView&amp;lt;String&amp;gt; assignedTasksListView) : void&lt;/div&gt;&lt;div&gt;+ showCalculateEmployeeWorkDuration() : void&lt;/div&gt;&lt;div&gt;+ showModifyTaskStatusForm() : void&lt;/div&gt;&lt;div&gt;+ showViewStatisticsForm() : void&lt;/div&gt;" style="text;strokeColor=none;fillColor=none;align=left;verticalAlign=top;spacingLeft=4;spacingRight=4;overflow=hidden;rotatable=0;points=[[0,0.5],[1,0.5]];portConstraint=eastwest;whiteSpace=wrap;html=1;" parent="PCdBLNUcMFj2vfBitNHI-33" vertex="1">
          <mxGeometry y="88" width="410" height="182" as="geometry" />
        </mxCell>
        <mxCell id="PCdBLNUcMFj2vfBitNHI-37" value="DataPersistence" style="swimlane;fontStyle=1;align=center;verticalAlign=top;childLayout=stackLayout;horizontal=1;startSize=26;horizontalStack=0;resizeParent=1;resizeParentMax=0;resizeLast=0;collapsible=1;marginBottom=0;whiteSpace=wrap;html=1;" parent="1" vertex="1">
          <mxGeometry x="260" y="38" width="290" height="90" as="geometry" />
        </mxCell>
        <mxCell id="PCdBLNUcMFj2vfBitNHI-38" value="" style="line;strokeWidth=1;fillColor=none;align=left;verticalAlign=middle;spacingTop=-1;spacingLeft=3;spacingRight=3;rotatable=0;labelPosition=right;points=[];portConstraint=eastwest;strokeColor=inherit;" parent="PCdBLNUcMFj2vfBitNHI-37" vertex="1">
          <mxGeometry y="26" width="290" height="8" as="geometry" />
        </mxCell>
        <mxCell id="PCdBLNUcMFj2vfBitNHI-39" value="+ saveData(TasksManagement tasksManagement, String fileName) : void&lt;div&gt;+ loadData(String fileName) : TasksManagement&lt;/div&gt;" style="text;strokeColor=none;fillColor=none;align=left;verticalAlign=top;spacingLeft=4;spacingRight=4;overflow=hidden;rotatable=0;points=[[0,0.5],[1,0.5]];portConstraint=eastwest;whiteSpace=wrap;html=1;" parent="PCdBLNUcMFj2vfBitNHI-37" vertex="1">
          <mxGeometry y="34" width="290" height="56" as="geometry" />
        </mxCell>
        <mxCell id="PCdBLNUcMFj2vfBitNHI-40" value="" style="endArrow=diamondThin;endFill=0;endSize=24;html=1;rounded=0;" parent="1" edge="1">
          <mxGeometry width="160" relative="1" as="geometry">
            <mxPoint x="120" y="190" as="sourcePoint" />
            <mxPoint x="120" y="280" as="targetPoint" />
            <Array as="points">
              <mxPoint x="120.5" y="230" />
            </Array>
          </mxGeometry>
        </mxCell>
        <mxCell id="PCdBLNUcMFj2vfBitNHI-41" value="" style="endArrow=diamondThin;endFill=0;endSize=24;html=1;rounded=0;" parent="1" edge="1">
          <mxGeometry width="160" relative="1" as="geometry">
            <mxPoint x="540" y="440" as="sourcePoint" />
            <mxPoint x="450" y="440" as="targetPoint" />
            <Array as="points">
              <mxPoint x="490" y="440" />
            </Array>
          </mxGeometry>
        </mxCell>
        <mxCell id="PCdBLNUcMFj2vfBitNHI-42" value="" style="endArrow=block;endSize=16;endFill=0;html=1;rounded=0;exitX=0.5;exitY=0;exitDx=0;exitDy=0;" parent="1" source="PCdBLNUcMFj2vfBitNHI-18" edge="1">
          <mxGeometry width="160" relative="1" as="geometry">
            <mxPoint x="450" y="590" as="sourcePoint" />
            <mxPoint x="660" y="540" as="targetPoint" />
          </mxGeometry>
        </mxCell>
        <mxCell id="PCdBLNUcMFj2vfBitNHI-43" value="" style="endArrow=block;endSize=16;endFill=0;html=1;rounded=0;exitX=0.5;exitY=0;exitDx=0;exitDy=0;" parent="1" source="PCdBLNUcMFj2vfBitNHI-22" edge="1">
          <mxGeometry width="160" relative="1" as="geometry">
            <mxPoint x="520" y="650" as="sourcePoint" />
            <mxPoint x="670" y="540" as="targetPoint" />
          </mxGeometry>
        </mxCell>
        <mxCell id="PCdBLNUcMFj2vfBitNHI-44" value="" style="endArrow=open;endSize=12;dashed=1;html=1;rounded=0;" parent="1" edge="1">
          <mxGeometry width="160" relative="1" as="geometry">
            <mxPoint x="129.97" y="640" as="sourcePoint" />
            <mxPoint x="130" y="550" as="targetPoint" />
          </mxGeometry>
        </mxCell>
        <mxCell id="PCdBLNUcMFj2vfBitNHI-45" value="" style="endArrow=open;endSize=12;dashed=1;html=1;rounded=0;entryX=0.962;entryY=-0.002;entryDx=0;entryDy=0;entryPerimeter=0;" parent="1" edge="1">
          <mxGeometry width="160" relative="1" as="geometry">
            <mxPoint x="384" y="132" as="sourcePoint" />
            <mxPoint x="383.65999999999985" y="280" as="targetPoint" />
            <Array as="points" />
          </mxGeometry>
        </mxCell>
        <mxCell id="PCdBLNUcMFj2vfBitNHI-47" value="Main" style="swimlane;fontStyle=1;align=center;verticalAlign=top;childLayout=stackLayout;horizontal=1;startSize=26;horizontalStack=0;resizeParent=1;resizeParentMax=0;resizeLast=0;collapsible=1;marginBottom=0;whiteSpace=wrap;html=1;" parent="1" vertex="1">
          <mxGeometry x="570" y="100" width="240" height="110" as="geometry" />
        </mxCell>
        <mxCell id="PCdBLNUcMFj2vfBitNHI-48" value="- dataPersistence : DataPersistence&lt;div&gt;- taskManager : TaskManagement&lt;/div&gt;" style="text;strokeColor=none;fillColor=none;align=left;verticalAlign=top;spacingLeft=4;spacingRight=4;overflow=hidden;rotatable=0;points=[[0,0.5],[1,0.5]];portConstraint=eastwest;whiteSpace=wrap;html=1;" parent="PCdBLNUcMFj2vfBitNHI-47" vertex="1">
          <mxGeometry y="26" width="240" height="34" as="geometry" />
        </mxCell>
        <mxCell id="PCdBLNUcMFj2vfBitNHI-49" value="" style="line;strokeWidth=1;fillColor=none;align=left;verticalAlign=middle;spacingTop=-1;spacingLeft=3;spacingRight=3;rotatable=0;labelPosition=right;points=[];portConstraint=eastwest;strokeColor=inherit;" parent="PCdBLNUcMFj2vfBitNHI-47" vertex="1">
          <mxGeometry y="60" width="240" height="8" as="geometry" />
        </mxCell>
        <mxCell id="PCdBLNUcMFj2vfBitNHI-50" value="+ start() : void&amp;nbsp;&lt;div&gt;+ main(String[] args) : void&amp;nbsp;&lt;/div&gt;" style="text;strokeColor=none;fillColor=none;align=left;verticalAlign=top;spacingLeft=4;spacingRight=4;overflow=hidden;rotatable=0;points=[[0,0.5],[1,0.5]];portConstraint=eastwest;whiteSpace=wrap;html=1;" parent="PCdBLNUcMFj2vfBitNHI-47" vertex="1">
          <mxGeometry y="68" width="240" height="42" as="geometry" />
        </mxCell>
        <mxCell id="PCdBLNUcMFj2vfBitNHI-51" value="" style="endArrow=diamondThin;endFill=0;endSize=24;html=1;rounded=0;entryX=1.031;entryY=-0.057;entryDx=0;entryDy=0;entryPerimeter=0;exitX=1.005;exitY=0.133;exitDx=0;exitDy=0;exitPerimeter=0;" parent="1" edge="1" source="PCdBLNUcMFj2vfBitNHI-17">
          <mxGeometry width="160" relative="1" as="geometry">
            <mxPoint x="780" y="447" as="sourcePoint" />
            <mxPoint x="991.0400000000001" y="856.01" as="targetPoint" />
            <Array as="points">
              <mxPoint x="1066.08" y="450" />
              <mxPoint x="1066.08" y="856" />
            </Array>
          </mxGeometry>
        </mxCell>
        <mxCell id="PCdBLNUcMFj2vfBitNHI-52" value="" style="endArrow=diamondThin;endFill=0;endSize=24;html=1;rounded=0;exitX=0.413;exitY=1.036;exitDx=0;exitDy=0;exitPerimeter=0;entryX=1.001;entryY=1.059;entryDx=0;entryDy=0;entryPerimeter=0;" parent="1" edge="1">
          <mxGeometry width="160" relative="1" as="geometry">
            <mxPoint x="678.6799999999998" y="210.00199999999995" as="sourcePoint" />
            <mxPoint x="450.00000000000006" y="312.4960000000001" as="targetPoint" />
            <Array as="points">
              <mxPoint x="678.56" y="310.49" />
            </Array>
          </mxGeometry>
        </mxCell>
        <mxCell id="PCdBLNUcMFj2vfBitNHI-53" value="" style="endArrow=open;endSize=12;dashed=1;html=1;rounded=0;exitX=-0.005;exitY=0.437;exitDx=0;exitDy=0;exitPerimeter=0;entryX=0.118;entryY=1;entryDx=0;entryDy=0;entryPerimeter=0;edgeStyle=orthogonalEdgeStyle;" parent="1" source="PCdBLNUcMFj2vfBitNHI-36" target="PCdBLNUcMFj2vfBitNHI-32" edge="1">
          <mxGeometry width="160" relative="1" as="geometry">
            <mxPoint x="1" y="1000" as="sourcePoint" />
            <mxPoint y="760" as="targetPoint" />
          </mxGeometry>
        </mxCell>
        <mxCell id="PCdBLNUcMFj2vfBitNHI-54" value="" style="endArrow=diamondThin;endFill=0;endSize=24;html=1;rounded=0;entryX=0.799;entryY=-0.011;entryDx=0;entryDy=0;entryPerimeter=0;edgeStyle=orthogonalEdgeStyle;" parent="1" target="PCdBLNUcMFj2vfBitNHI-33" edge="1">
          <mxGeometry width="160" relative="1" as="geometry">
            <mxPoint x="580" y="541" as="sourcePoint" />
            <mxPoint x="550" y="660" as="targetPoint" />
            <Array as="points">
              <mxPoint x="580" y="541" />
              <mxPoint x="580" y="665" />
              <mxPoint x="408" y="665" />
            </Array>
          </mxGeometry>
        </mxCell>
        <mxCell id="PCdBLNUcMFj2vfBitNHI-56" value="&lt;font style=&quot;font-size: 21px;&quot;&gt;&amp;lt;&amp;lt;&lt;font style=&quot;&quot;&gt;abstract&lt;/font&gt;&amp;gt;&amp;gt;&lt;/font&gt;" style="text;html=1;align=center;verticalAlign=middle;resizable=0;points=[];autosize=1;strokeColor=none;fillColor=none;" parent="1" vertex="1">
          <mxGeometry x="595" y="323" width="150" height="40" as="geometry" />
        </mxCell>
        <mxCell id="722dFN28r32C9RaKDBth-1" value="&lt;p style=&quot;margin:0px;margin-top:4px;text-align:center;&quot;&gt;&lt;b&gt;Serializable&lt;/b&gt;&lt;/p&gt;&lt;hr size=&quot;1&quot; style=&quot;border-style:solid;&quot;&gt;&lt;p style=&quot;margin:0px;margin-left:4px;&quot;&gt;&lt;br&gt;&lt;/p&gt;&lt;hr size=&quot;1&quot; style=&quot;border-style:solid;&quot;&gt;&lt;p style=&quot;margin:0px;margin-left:4px;&quot;&gt;&lt;br&gt;&lt;/p&gt;" style="verticalAlign=top;align=left;overflow=fill;html=1;whiteSpace=wrap;" vertex="1" parent="1">
          <mxGeometry x="-260" y="310" width="180" height="30" as="geometry" />
        </mxCell>
        <mxCell id="722dFN28r32C9RaKDBth-2" value="&amp;lt;&amp;lt;interface&amp;gt;&amp;gt;" style="text;html=1;align=center;verticalAlign=middle;resizable=0;points=[];autosize=1;strokeColor=none;fillColor=none;" vertex="1" parent="1">
          <mxGeometry x="-230" y="270" width="100" height="30" as="geometry" />
        </mxCell>
        <mxCell id="722dFN28r32C9RaKDBth-3" value="" style="endArrow=block;dashed=1;endFill=0;endSize=12;html=1;rounded=0;" edge="1" parent="1">
          <mxGeometry width="160" relative="1" as="geometry">
            <mxPoint x="120" y="450" as="sourcePoint" />
            <mxPoint x="280" y="450" as="targetPoint" />
          </mxGeometry>
        </mxCell>
        <mxCell id="722dFN28r32C9RaKDBth-4" value="" style="endArrow=block;dashed=1;endFill=0;endSize=12;html=1;rounded=0;entryX=0.565;entryY=0.935;entryDx=0;entryDy=0;entryPerimeter=0;exitX=-0.008;exitY=0.433;exitDx=0;exitDy=0;exitPerimeter=0;edgeStyle=orthogonalEdgeStyle;" edge="1" parent="1" source="PCdBLNUcMFj2vfBitNHI-29" target="722dFN28r32C9RaKDBth-1">
          <mxGeometry width="160" relative="1" as="geometry">
            <mxPoint x="-330" y="450" as="sourcePoint" />
            <mxPoint x="-170" y="450" as="targetPoint" />
          </mxGeometry>
        </mxCell>
        <mxCell id="722dFN28r32C9RaKDBth-5" value="" style="endArrow=block;dashed=1;endFill=0;endSize=12;html=1;rounded=0;exitX=-0.003;exitY=-0.032;exitDx=0;exitDy=0;exitPerimeter=0;entryX=1;entryY=0.5;entryDx=0;entryDy=0;" edge="1" parent="1" source="PCdBLNUcMFj2vfBitNHI-13" target="722dFN28r32C9RaKDBth-1">
          <mxGeometry width="160" relative="1" as="geometry">
            <mxPoint x="-330" y="240" as="sourcePoint" />
            <mxPoint x="-90" y="380" as="targetPoint" />
            <Array as="points">
              <mxPoint x="-30" y="108" />
              <mxPoint x="-30" y="325" />
            </Array>
          </mxGeometry>
        </mxCell>
        <mxCell id="722dFN28r32C9RaKDBth-6" value="" style="endArrow=block;dashed=1;endFill=0;endSize=12;html=1;rounded=0;edgeStyle=orthogonalEdgeStyle;exitX=0.045;exitY=1.027;exitDx=0;exitDy=0;exitPerimeter=0;entryX=0.39;entryY=1.058;entryDx=0;entryDy=0;entryPerimeter=0;" edge="1" parent="1" source="PCdBLNUcMFj2vfBitNHI-17" target="722dFN28r32C9RaKDBth-1">
          <mxGeometry width="160" relative="1" as="geometry">
            <mxPoint x="550" y="550" as="sourcePoint" />
            <mxPoint x="-190" y="350" as="targetPoint" />
            <Array as="points">
              <mxPoint x="551" y="590" />
              <mxPoint x="-190" y="590" />
            </Array>
          </mxGeometry>
        </mxCell>
        <mxCell id="722dFN28r32C9RaKDBth-7" value="" style="endArrow=diamondThin;endFill=0;endSize=24;html=1;rounded=0;" edge="1" parent="1">
          <mxGeometry width="160" relative="1" as="geometry">
            <mxPoint x="360" y="550" as="sourcePoint" />
            <mxPoint x="360" y="787" as="targetPoint" />
          </mxGeometry>
        </mxCell>
        <mxCell id="722dFN28r32C9RaKDBth-8" value="" style="endArrow=diamondThin;endFill=0;endSize=24;html=1;rounded=0;exitX=0;exitY=0.5;exitDx=0;exitDy=0;entryX=0;entryY=0.5;entryDx=0;entryDy=0;" edge="1" parent="1">
          <mxGeometry width="160" relative="1" as="geometry">
            <mxPoint x="2.2737367544323206e-13" y="90" as="sourcePoint" />
            <mxPoint x="80" y="979" as="targetPoint" />
            <Array as="points">
              <mxPoint x="-310" y="90" />
              <mxPoint x="-310" y="980" />
            </Array>
          </mxGeometry>
        </mxCell>
      </root>
    </mxGraphModel>
  </diagram>
  <diagram id="8jqlhSD2uD3w0zM2w5BT" name="Page-2">
    <mxGraphModel dx="1804" dy="468" grid="1" gridSize="10" guides="1" tooltips="1" connect="1" arrows="1" fold="1" page="1" pageScale="1" pageWidth="850" pageHeight="1100" math="0" shadow="0">
      <root>
        <mxCell id="0" />
        <mxCell id="1" parent="0" />
        <mxCell id="kPsv1HZvc-trXdoSI_5S-1" value="Employee" style="swimlane;fontStyle=1;align=center;verticalAlign=top;childLayout=stackLayout;horizontal=1;startSize=20;horizontalStack=0;resizeParent=1;resizeParentMax=0;resizeLast=0;collapsible=1;marginBottom=0;whiteSpace=wrap;html=1;" vertex="1" parent="1">
          <mxGeometry x="50" y="38" width="190" height="130" as="geometry" />
        </mxCell>
        <mxCell id="kPsv1HZvc-trXdoSI_5S-2" value="- idEmployee : int&lt;div&gt;- name : String&lt;/div&gt;" style="text;strokeColor=none;fillColor=none;align=left;verticalAlign=top;spacingLeft=4;spacingRight=4;overflow=hidden;rotatable=0;points=[[0,0.5],[1,0.5]];portConstraint=eastwest;whiteSpace=wrap;html=1;" vertex="1" parent="kPsv1HZvc-trXdoSI_5S-1">
          <mxGeometry y="20" width="190" height="44" as="geometry" />
        </mxCell>
        <mxCell id="kPsv1HZvc-trXdoSI_5S-3" value="" style="line;strokeWidth=1;fillColor=none;align=left;verticalAlign=middle;spacingTop=-1;spacingLeft=3;spacingRight=3;rotatable=0;labelPosition=right;points=[];portConstraint=eastwest;strokeColor=inherit;" vertex="1" parent="kPsv1HZvc-trXdoSI_5S-1">
          <mxGeometry y="64" width="190" height="8" as="geometry" />
        </mxCell>
        <mxCell id="kPsv1HZvc-trXdoSI_5S-4" value="+ getIdEmployee() : int&lt;div&gt;+ getName() : String&lt;/div&gt;&lt;div&gt;+ toString() : String&lt;/div&gt;" style="text;strokeColor=none;fillColor=none;align=left;verticalAlign=top;spacingLeft=4;spacingRight=4;overflow=hidden;rotatable=0;points=[[0,0.5],[1,0.5]];portConstraint=eastwest;whiteSpace=wrap;html=1;" vertex="1" parent="kPsv1HZvc-trXdoSI_5S-1">
          <mxGeometry y="72" width="190" height="58" as="geometry" />
        </mxCell>
        <mxCell id="kPsv1HZvc-trXdoSI_5S-5" value="Task" style="swimlane;fontStyle=1;align=center;verticalAlign=top;childLayout=stackLayout;horizontal=1;startSize=26;horizontalStack=0;resizeParent=1;resizeParentMax=0;resizeLast=0;collapsible=1;marginBottom=0;whiteSpace=wrap;html=1;" vertex="1" parent="1">
          <mxGeometry x="540" y="360" width="240" height="170" as="geometry" />
        </mxCell>
        <mxCell id="kPsv1HZvc-trXdoSI_5S-6" value="- idTask : int&lt;div&gt;- statusTask : String&lt;/div&gt;" style="text;strokeColor=none;fillColor=none;align=left;verticalAlign=top;spacingLeft=4;spacingRight=4;overflow=hidden;rotatable=0;points=[[0,0.5],[1,0.5]];portConstraint=eastwest;whiteSpace=wrap;html=1;" vertex="1" parent="kPsv1HZvc-trXdoSI_5S-5">
          <mxGeometry y="26" width="240" height="44" as="geometry" />
        </mxCell>
        <mxCell id="kPsv1HZvc-trXdoSI_5S-7" value="" style="line;strokeWidth=1;fillColor=none;align=left;verticalAlign=middle;spacingTop=-1;spacingLeft=3;spacingRight=3;rotatable=0;labelPosition=right;points=[];portConstraint=eastwest;strokeColor=inherit;" vertex="1" parent="kPsv1HZvc-trXdoSI_5S-5">
          <mxGeometry y="70" width="240" height="8" as="geometry" />
        </mxCell>
        <mxCell id="kPsv1HZvc-trXdoSI_5S-8" value="+ getIdTask() : int&lt;div&gt;+ getStatusTask() : String&lt;/div&gt;&lt;div&gt;+ setStatusTask(String statusTask) : void&lt;/div&gt;&lt;div&gt;+ estimateDuration() : int&amp;nbsp;&lt;/div&gt;&lt;div&gt;+ toString() : String&lt;/div&gt;" style="text;strokeColor=none;fillColor=none;align=left;verticalAlign=top;spacingLeft=4;spacingRight=4;overflow=hidden;rotatable=0;points=[[0,0.5],[1,0.5]];portConstraint=eastwest;whiteSpace=wrap;html=1;" vertex="1" parent="kPsv1HZvc-trXdoSI_5S-5">
          <mxGeometry y="78" width="240" height="92" as="geometry" />
        </mxCell>
        <mxCell id="kPsv1HZvc-trXdoSI_5S-9" value="SimpleTask" style="swimlane;fontStyle=1;align=center;verticalAlign=top;childLayout=stackLayout;horizontal=1;startSize=26;horizontalStack=0;resizeParent=1;resizeParentMax=0;resizeLast=0;collapsible=1;marginBottom=0;whiteSpace=wrap;html=1;" vertex="1" parent="1">
          <mxGeometry x="500" y="790" width="180" height="120" as="geometry" />
        </mxCell>
        <mxCell id="kPsv1HZvc-trXdoSI_5S-10" value="- startHour : int&lt;div&gt;- endHour : int&lt;/div&gt;" style="text;strokeColor=none;fillColor=none;align=left;verticalAlign=top;spacingLeft=4;spacingRight=4;overflow=hidden;rotatable=0;points=[[0,0.5],[1,0.5]];portConstraint=eastwest;whiteSpace=wrap;html=1;" vertex="1" parent="kPsv1HZvc-trXdoSI_5S-9">
          <mxGeometry y="26" width="180" height="44" as="geometry" />
        </mxCell>
        <mxCell id="kPsv1HZvc-trXdoSI_5S-11" value="" style="line;strokeWidth=1;fillColor=none;align=left;verticalAlign=middle;spacingTop=-1;spacingLeft=3;spacingRight=3;rotatable=0;labelPosition=right;points=[];portConstraint=eastwest;strokeColor=inherit;" vertex="1" parent="kPsv1HZvc-trXdoSI_5S-9">
          <mxGeometry y="70" width="180" height="8" as="geometry" />
        </mxCell>
        <mxCell id="kPsv1HZvc-trXdoSI_5S-12" value="+ estimateDuration() : int&lt;div&gt;+ toString() : String&lt;/div&gt;" style="text;strokeColor=none;fillColor=none;align=left;verticalAlign=top;spacingLeft=4;spacingRight=4;overflow=hidden;rotatable=0;points=[[0,0.5],[1,0.5]];portConstraint=eastwest;whiteSpace=wrap;html=1;" vertex="1" parent="kPsv1HZvc-trXdoSI_5S-9">
          <mxGeometry y="78" width="180" height="42" as="geometry" />
        </mxCell>
        <mxCell id="kPsv1HZvc-trXdoSI_5S-13" value="ComplexTask" style="swimlane;fontStyle=1;align=center;verticalAlign=top;childLayout=stackLayout;horizontal=1;startSize=26;horizontalStack=0;resizeParent=1;resizeParentMax=0;resizeLast=0;collapsible=1;marginBottom=0;whiteSpace=wrap;html=1;" vertex="1" parent="1">
          <mxGeometry x="710" y="790" width="160" height="130" as="geometry" />
        </mxCell>
        <mxCell id="kPsv1HZvc-trXdoSI_5S-14" value="- tasks : List&amp;lt;Task&amp;gt;" style="text;strokeColor=none;fillColor=none;align=left;verticalAlign=top;spacingLeft=4;spacingRight=4;overflow=hidden;rotatable=0;points=[[0,0.5],[1,0.5]];portConstraint=eastwest;whiteSpace=wrap;html=1;" vertex="1" parent="kPsv1HZvc-trXdoSI_5S-13">
          <mxGeometry y="26" width="160" height="26" as="geometry" />
        </mxCell>
        <mxCell id="kPsv1HZvc-trXdoSI_5S-15" value="" style="line;strokeWidth=1;fillColor=none;align=left;verticalAlign=middle;spacingTop=-1;spacingLeft=3;spacingRight=3;rotatable=0;labelPosition=right;points=[];portConstraint=eastwest;strokeColor=inherit;" vertex="1" parent="kPsv1HZvc-trXdoSI_5S-13">
          <mxGeometry y="52" width="160" height="8" as="geometry" />
        </mxCell>
        <mxCell id="kPsv1HZvc-trXdoSI_5S-16" value="+ getTasks : List&amp;lt;Task&amp;gt;&lt;div&gt;+ addTask(Task task) : void&lt;/div&gt;&lt;div&gt;+ estimateDuration() : int&lt;/div&gt;&lt;div&gt;+ toString() : String&lt;/div&gt;" style="text;strokeColor=none;fillColor=none;align=left;verticalAlign=top;spacingLeft=4;spacingRight=4;overflow=hidden;rotatable=0;points=[[0,0.5],[1,0.5]];portConstraint=eastwest;whiteSpace=wrap;html=1;" vertex="1" parent="kPsv1HZvc-trXdoSI_5S-13">
          <mxGeometry y="60" width="160" height="70" as="geometry" />
        </mxCell>
        <mxCell id="kPsv1HZvc-trXdoSI_5S-17" value="TasksManagement" style="swimlane;fontStyle=1;align=center;verticalAlign=top;childLayout=stackLayout;horizontal=1;startSize=26;horizontalStack=0;resizeParent=1;resizeParentMax=0;resizeLast=0;collapsible=1;marginBottom=0;whiteSpace=wrap;html=1;" vertex="1" parent="1">
          <mxGeometry x="10" y="280" width="430" height="250" as="geometry" />
        </mxCell>
        <mxCell id="kPsv1HZvc-trXdoSI_5S-18" value="- taskMap : Map&amp;lt;Employee, List&amp;lt;Task&amp;gt;&amp;gt;&lt;div&gt;- taskList : List&amp;lt;Task&amp;gt;&lt;/div&gt;" style="text;strokeColor=none;fillColor=none;align=left;verticalAlign=top;spacingLeft=4;spacingRight=4;overflow=hidden;rotatable=0;points=[[0,0.5],[1,0.5]];portConstraint=eastwest;whiteSpace=wrap;html=1;" vertex="1" parent="kPsv1HZvc-trXdoSI_5S-17">
          <mxGeometry y="26" width="430" height="34" as="geometry" />
        </mxCell>
        <mxCell id="kPsv1HZvc-trXdoSI_5S-19" value="" style="line;strokeWidth=1;fillColor=none;align=left;verticalAlign=middle;spacingTop=-1;spacingLeft=3;spacingRight=3;rotatable=0;labelPosition=right;points=[];portConstraint=eastwest;strokeColor=inherit;" vertex="1" parent="kPsv1HZvc-trXdoSI_5S-17">
          <mxGeometry y="60" width="430" height="8" as="geometry" />
        </mxCell>
        <mxCell id="kPsv1HZvc-trXdoSI_5S-20" value="+ findEmployeeById(int id) : Employee&lt;div&gt;+ findTaskById(int id) : boolean&lt;/div&gt;&lt;div&gt;&lt;div&gt;+ getTaskList() : List&amp;lt;Task&amp;gt;&lt;/div&gt;&lt;div&gt;+ getEmployees() : List&amp;lt;Employees&amp;gt;&lt;/div&gt;&lt;div&gt;+ getTaskById(int taskId) : Task&lt;/div&gt;&lt;/div&gt;&lt;div&gt;+ addEmployee(int idEmployee, String name) : void&lt;/div&gt;&lt;div&gt;+ addSimpleTask(int idTask, String statusTask, int startHour, int endHour) : void&lt;/div&gt;&lt;div&gt;+ addComplexTask(int idTask, String statusTask, List&amp;lt;Task&amp;gt; subtasks) : void&lt;/div&gt;&lt;div&gt;+ assignTaskToEmployee(int idEmployee, Task task) : void&lt;/div&gt;&lt;div&gt;+ calculateEmployeeWorkDuration(int idEmployee) : int&lt;/div&gt;&lt;div&gt;+ modifyTaskStatus(int idEmployee, int idTask, String newStatus) : void&amp;nbsp;&lt;/div&gt;&lt;div&gt;+ updateSubtaskStatus(ComplexTask complexTask, String newStatus)&lt;/div&gt;&lt;div&gt;&lt;br&gt;&lt;/div&gt;&lt;div&gt;&lt;br&gt;&lt;/div&gt;&lt;div&gt;&lt;br&gt;&lt;/div&gt;" style="text;strokeColor=none;fillColor=none;align=left;verticalAlign=top;spacingLeft=4;spacingRight=4;overflow=hidden;rotatable=0;points=[[0,0.5],[1,0.5]];portConstraint=eastwest;whiteSpace=wrap;html=1;" vertex="1" parent="kPsv1HZvc-trXdoSI_5S-17">
          <mxGeometry y="68" width="430" height="182" as="geometry" />
        </mxCell>
        <mxCell id="kPsv1HZvc-trXdoSI_5S-21" value="Utility" style="swimlane;fontStyle=1;align=center;verticalAlign=top;childLayout=stackLayout;horizontal=1;startSize=26;horizontalStack=0;resizeParent=1;resizeParentMax=0;resizeLast=0;collapsible=1;marginBottom=0;whiteSpace=wrap;html=1;" vertex="1" parent="1">
          <mxGeometry x="-40" y="640" width="340" height="100" as="geometry" />
        </mxCell>
        <mxCell id="kPsv1HZvc-trXdoSI_5S-22" value="" style="line;strokeWidth=1;fillColor=none;align=left;verticalAlign=middle;spacingTop=-1;spacingLeft=3;spacingRight=3;rotatable=0;labelPosition=right;points=[];portConstraint=eastwest;strokeColor=inherit;" vertex="1" parent="kPsv1HZvc-trXdoSI_5S-21">
          <mxGeometry y="26" width="340" height="8" as="geometry" />
        </mxCell>
        <mxCell id="kPsv1HZvc-trXdoSI_5S-23" value="+filterAndSortEmployeeByWorkDuration(TasksManagement tasksManagement) : void&lt;div&gt;+ calculateTaskStatusCount(TasksManagement tasksManagement) : Map&amp;lt;String, Map&amp;lt;String, Integer&amp;gt;&amp;gt;&amp;nbsp;&lt;/div&gt;" style="text;strokeColor=none;fillColor=none;align=left;verticalAlign=top;spacingLeft=4;spacingRight=4;overflow=hidden;rotatable=0;points=[[0,0.5],[1,0.5]];portConstraint=eastwest;whiteSpace=wrap;html=1;" vertex="1" parent="kPsv1HZvc-trXdoSI_5S-21">
          <mxGeometry y="34" width="340" height="66" as="geometry" />
        </mxCell>
        <mxCell id="kPsv1HZvc-trXdoSI_5S-24" value="TaskManagementView" style="swimlane;fontStyle=1;align=center;verticalAlign=top;childLayout=stackLayout;horizontal=1;startSize=26;horizontalStack=0;resizeParent=1;resizeParentMax=0;resizeLast=0;collapsible=1;marginBottom=0;whiteSpace=wrap;html=1;" vertex="1" parent="1">
          <mxGeometry x="80" y="790" width="410" height="250" as="geometry" />
        </mxCell>
        <mxCell id="kPsv1HZvc-trXdoSI_5S-25" value="- taskManager : TasksManagement&lt;div&gt;- employees : List&amp;lt;Employee&amp;gt;&lt;/div&gt;&lt;div&gt;- tasks : List&amp;lt;Task&amp;gt; tasks&lt;/div&gt;" style="text;strokeColor=none;fillColor=none;align=left;verticalAlign=top;spacingLeft=4;spacingRight=4;overflow=hidden;rotatable=0;points=[[0,0.5],[1,0.5]];portConstraint=eastwest;whiteSpace=wrap;html=1;" vertex="1" parent="kPsv1HZvc-trXdoSI_5S-24">
          <mxGeometry y="26" width="410" height="54" as="geometry" />
        </mxCell>
        <mxCell id="kPsv1HZvc-trXdoSI_5S-26" value="" style="line;strokeWidth=1;fillColor=none;align=left;verticalAlign=middle;spacingTop=-1;spacingLeft=3;spacingRight=3;rotatable=0;labelPosition=right;points=[];portConstraint=eastwest;strokeColor=inherit;" vertex="1" parent="kPsv1HZvc-trXdoSI_5S-24">
          <mxGeometry y="80" width="410" height="8" as="geometry" />
        </mxCell>
        <mxCell id="kPsv1HZvc-trXdoSI_5S-27" value="+ startView() : void&lt;div&gt;+ loadEmployeesFromTaskManager() : void&amp;nbsp;&lt;/div&gt;&lt;div&gt;+ loadTasksFromTaskManager() : void&lt;/div&gt;&lt;div&gt;+loadTaskAssignments(ListView&amp;lt;String&amp;gt; assignedTasksListView) : void&lt;/div&gt;&lt;div&gt;+ showAddEmployeeForm() : void&lt;/div&gt;&lt;div&gt;+ showAddTaskForm() : void&amp;nbsp;&lt;/div&gt;&lt;div&gt;+showAssignTaskForm(ListView&amp;lt;String&amp;gt; assignedTasksListView) : void&lt;/div&gt;&lt;div&gt;+ showCalculateEmployeeWorkDuration() : void&lt;/div&gt;&lt;div&gt;+ showModifyTaskStatusForm() : void&lt;/div&gt;&lt;div&gt;+ showViewStatisticsForm() : void&lt;/div&gt;" style="text;strokeColor=none;fillColor=none;align=left;verticalAlign=top;spacingLeft=4;spacingRight=4;overflow=hidden;rotatable=0;points=[[0,0.5],[1,0.5]];portConstraint=eastwest;whiteSpace=wrap;html=1;" vertex="1" parent="kPsv1HZvc-trXdoSI_5S-24">
          <mxGeometry y="88" width="410" height="162" as="geometry" />
        </mxCell>
        <mxCell id="kPsv1HZvc-trXdoSI_5S-28" value="DataPersistence" style="swimlane;fontStyle=1;align=center;verticalAlign=top;childLayout=stackLayout;horizontal=1;startSize=26;horizontalStack=0;resizeParent=1;resizeParentMax=0;resizeLast=0;collapsible=1;marginBottom=0;whiteSpace=wrap;html=1;" vertex="1" parent="1">
          <mxGeometry x="260" y="38" width="270" height="90" as="geometry" />
        </mxCell>
        <mxCell id="kPsv1HZvc-trXdoSI_5S-29" value="" style="line;strokeWidth=1;fillColor=none;align=left;verticalAlign=middle;spacingTop=-1;spacingLeft=3;spacingRight=3;rotatable=0;labelPosition=right;points=[];portConstraint=eastwest;strokeColor=inherit;" vertex="1" parent="kPsv1HZvc-trXdoSI_5S-28">
          <mxGeometry y="26" width="270" height="8" as="geometry" />
        </mxCell>
        <mxCell id="kPsv1HZvc-trXdoSI_5S-30" value="+ saveData(TasksManagement tasksManagement, String fileName) : void&lt;div&gt;+ loadData(String fileName) : TasksManagement&lt;/div&gt;" style="text;strokeColor=none;fillColor=none;align=left;verticalAlign=top;spacingLeft=4;spacingRight=4;overflow=hidden;rotatable=0;points=[[0,0.5],[1,0.5]];portConstraint=eastwest;whiteSpace=wrap;html=1;" vertex="1" parent="kPsv1HZvc-trXdoSI_5S-28">
          <mxGeometry y="34" width="270" height="56" as="geometry" />
        </mxCell>
        <mxCell id="kPsv1HZvc-trXdoSI_5S-31" value="" style="endArrow=diamondThin;endFill=0;endSize=24;html=1;rounded=0;exitX=0.482;exitY=1.05;exitDx=0;exitDy=0;exitPerimeter=0;" edge="1" parent="1">
          <mxGeometry width="160" relative="1" as="geometry">
            <mxPoint x="140.28999999999994" y="170.89999999999998" as="sourcePoint" />
            <mxPoint x="140" y="280" as="targetPoint" />
            <Array as="points">
              <mxPoint x="140.5" y="230" />
            </Array>
          </mxGeometry>
        </mxCell>
        <mxCell id="kPsv1HZvc-trXdoSI_5S-32" value="" style="endArrow=diamondThin;endFill=0;endSize=24;html=1;rounded=0;" edge="1" parent="1">
          <mxGeometry width="160" relative="1" as="geometry">
            <mxPoint x="540" y="440" as="sourcePoint" />
            <mxPoint x="440" y="440" as="targetPoint" />
            <Array as="points">
              <mxPoint x="490" y="440" />
            </Array>
          </mxGeometry>
        </mxCell>
        <mxCell id="kPsv1HZvc-trXdoSI_5S-33" value="" style="endArrow=block;endSize=16;endFill=0;html=1;rounded=0;entryX=0.515;entryY=1.005;entryDx=0;entryDy=0;entryPerimeter=0;exitX=0.5;exitY=0;exitDx=0;exitDy=0;" edge="1" parent="1" source="kPsv1HZvc-trXdoSI_5S-9" target="kPsv1HZvc-trXdoSI_5S-8">
          <mxGeometry width="160" relative="1" as="geometry">
            <mxPoint x="450" y="590" as="sourcePoint" />
            <mxPoint x="610" y="590" as="targetPoint" />
          </mxGeometry>
        </mxCell>
        <mxCell id="kPsv1HZvc-trXdoSI_5S-34" value="" style="endArrow=block;endSize=16;endFill=0;html=1;rounded=0;exitX=0.5;exitY=0;exitDx=0;exitDy=0;" edge="1" parent="1" source="kPsv1HZvc-trXdoSI_5S-13">
          <mxGeometry width="160" relative="1" as="geometry">
            <mxPoint x="520" y="650" as="sourcePoint" />
            <mxPoint x="666" y="530" as="targetPoint" />
          </mxGeometry>
        </mxCell>
        <mxCell id="kPsv1HZvc-trXdoSI_5S-35" value="" style="endArrow=open;endSize=12;dashed=1;html=1;rounded=0;entryX=0.453;entryY=1.014;entryDx=0;entryDy=0;entryPerimeter=0;" edge="1" parent="1">
          <mxGeometry width="160" relative="1" as="geometry">
            <mxPoint x="129.97" y="640" as="sourcePoint" />
            <mxPoint x="129.49999999999997" y="529.998" as="targetPoint" />
          </mxGeometry>
        </mxCell>
        <mxCell id="kPsv1HZvc-trXdoSI_5S-36" value="" style="endArrow=open;endSize=12;dashed=1;html=1;rounded=0;entryX=0.962;entryY=-0.002;entryDx=0;entryDy=0;entryPerimeter=0;" edge="1" parent="1">
          <mxGeometry width="160" relative="1" as="geometry">
            <mxPoint x="384" y="132" as="sourcePoint" />
            <mxPoint x="383.65999999999985" y="280" as="targetPoint" />
            <Array as="points" />
          </mxGeometry>
        </mxCell>
        <mxCell id="kPsv1HZvc-trXdoSI_5S-37" value="" style="endArrow=open;endSize=12;dashed=1;html=1;rounded=0;exitX=0.584;exitY=0.002;exitDx=0;exitDy=0;exitPerimeter=0;entryX=0.72;entryY=1;entryDx=0;entryDy=0;entryPerimeter=0;" edge="1" parent="1" source="kPsv1HZvc-trXdoSI_5S-24" target="kPsv1HZvc-trXdoSI_5S-20">
          <mxGeometry width="160" relative="1" as="geometry">
            <mxPoint x="330" y="630" as="sourcePoint" />
            <mxPoint x="490" y="630" as="targetPoint" />
          </mxGeometry>
        </mxCell>
        <mxCell id="kPsv1HZvc-trXdoSI_5S-38" value="Main" style="swimlane;fontStyle=1;align=center;verticalAlign=top;childLayout=stackLayout;horizontal=1;startSize=26;horizontalStack=0;resizeParent=1;resizeParentMax=0;resizeLast=0;collapsible=1;marginBottom=0;whiteSpace=wrap;html=1;" vertex="1" parent="1">
          <mxGeometry x="580" y="128" width="240" height="110" as="geometry" />
        </mxCell>
        <mxCell id="kPsv1HZvc-trXdoSI_5S-39" value="- dataPersistence : DataPersistence&lt;div&gt;- taskManager : TaskManagement&lt;/div&gt;" style="text;strokeColor=none;fillColor=none;align=left;verticalAlign=top;spacingLeft=4;spacingRight=4;overflow=hidden;rotatable=0;points=[[0,0.5],[1,0.5]];portConstraint=eastwest;whiteSpace=wrap;html=1;" vertex="1" parent="kPsv1HZvc-trXdoSI_5S-38">
          <mxGeometry y="26" width="240" height="34" as="geometry" />
        </mxCell>
        <mxCell id="kPsv1HZvc-trXdoSI_5S-40" value="" style="line;strokeWidth=1;fillColor=none;align=left;verticalAlign=middle;spacingTop=-1;spacingLeft=3;spacingRight=3;rotatable=0;labelPosition=right;points=[];portConstraint=eastwest;strokeColor=inherit;" vertex="1" parent="kPsv1HZvc-trXdoSI_5S-38">
          <mxGeometry y="60" width="240" height="8" as="geometry" />
        </mxCell>
        <mxCell id="kPsv1HZvc-trXdoSI_5S-41" value="+ start() : void&amp;nbsp;&lt;div&gt;+ main(String[] args) : void&amp;nbsp;&lt;/div&gt;" style="text;strokeColor=none;fillColor=none;align=left;verticalAlign=top;spacingLeft=4;spacingRight=4;overflow=hidden;rotatable=0;points=[[0,0.5],[1,0.5]];portConstraint=eastwest;whiteSpace=wrap;html=1;" vertex="1" parent="kPsv1HZvc-trXdoSI_5S-38">
          <mxGeometry y="68" width="240" height="42" as="geometry" />
        </mxCell>
        <mxCell id="kPsv1HZvc-trXdoSI_5S-42" value="" style="endArrow=diamondThin;endFill=0;endSize=24;html=1;rounded=0;exitX=0.413;exitY=1.036;exitDx=0;exitDy=0;exitPerimeter=0;entryX=1.001;entryY=1.059;entryDx=0;entryDy=0;entryPerimeter=0;" edge="1" parent="1" source="kPsv1HZvc-trXdoSI_5S-41" target="kPsv1HZvc-trXdoSI_5S-18">
          <mxGeometry width="160" relative="1" as="geometry">
            <mxPoint x="520" y="320" as="sourcePoint" />
            <mxPoint x="680" y="320" as="targetPoint" />
            <Array as="points">
              <mxPoint x="679" y="340" />
            </Array>
          </mxGeometry>
        </mxCell>
      </root>
    </mxGraphModel>
  </diagram>
  <diagram id="h_cWRGJ_P-cjSCu5KDsq" name="Page-3">
    <mxGraphModel dx="954" dy="468" grid="1" gridSize="10" guides="1" tooltips="1" connect="1" arrows="1" fold="1" page="1" pageScale="1" pageWidth="850" pageHeight="1100" math="0" shadow="0">
      <root>
        <mxCell id="0" />
        <mxCell id="1" parent="0" />
      </root>
    </mxGraphModel>
  </diagram>
</mxfile>
